<?xml version="1.0" encoding="utf-8"?>
<!-- Generator: Adobe Illustrator 28.0.0, SVG Export Plug-In . SVG Version: 6.00 Build 0)  -->
<svg version="1.1" id="レイヤー_1" xmlns="http://www.w3.org/2000/svg" xmlns:xlink="http://www.w3.org/1999/xlink" x="0px"
	 y="0px" viewBox="0 0 198.4 28.4" style="enable-background:new 0 0 198.4 28.4;" xml:space="preserve">
<style type="text/css">
	.st0{fill:#00479B;}
	.st1{fill:#880050;}
	.st2{fill:#E95477;}
</style>
<g>
	<g>
		<path class="st0" d="M12.2,24.4c-1.6,0-2.6-1-2.6-2.7v-3c0-1.5,1.1-2.6,2.6-2.6h8.1v-2.8h-9.3c-0.6,0-0.8-0.3-0.8-1
			c0-0.6,0.1-1,0.8-1h9.3V8.4h-9.3c-0.6,0-0.8-0.3-0.8-1c0-0.6,0.1-1,0.8-1h9.3V4.8c0-0.6,0.3-0.8,1.1-0.8c0.8,0,1.1,0.1,1.1,0.8
			v1.6h5c0.5,0,0.8,0.3,0.8,1c0,0.6-0.1,1-0.8,1h-5v2.9h5c0.5,0,0.8,0.3,0.8,1c0,0.6-0.1,1-0.8,1h-5v2.8h0.3c1.1,0,1.4,0.1,2.6,0.6
			l3.9,1.8c0.2,0.1,0.4,0.2,0.4,0.6c0,0.2,0,0.4-0.1,0.7c-0.1,0.4-0.3,0.8-0.7,0.8c-0.2,0-0.3,0-0.5-0.1l-3.7-1.7
			c-0.9-0.4-1.3-0.5-2.2-0.5v3.7c0,1.5-0.5,2.5-3.2,2.5H12.2z M13.1,18c-0.8,0-1.3,0.5-1.3,1.2v2c0,0.8,0.5,1.2,1.3,1.2h5.6
			c1.5,0,1.6-0.3,1.6-1.1V18C20.3,18,13.1,18,13.1,18z"/>
	</g>
	<g>
		<path class="st0" d="M35.1,24.3c-0.6,0-0.8-0.3-0.8-1.1c0-0.7,0.2-1,0.8-1h13.5c1.2,0,1.7-0.5,1.7-1.6v-3.1c0-1.2-0.5-1.7-1.7-1.7
			H37.4c-1.1,0-1.7-0.5-1.7-1.5c0-0.1,0-0.2,0-0.3l0.5-4.7h-2.5c-0.6,0-0.8-0.3-0.8-1.1c0-0.8,0.2-1.1,0.8-1.1h2.8l0.2-2
			c0-0.6,0.4-0.8,1.2-0.8c0.5,0,1,0.1,1,0.7l-0.2,2.2h13c0.6,0,0.8,0.3,0.8,1.1c0,0.8-0.2,1.1-0.8,1.1H38.4L38,13.2
			c0,0.2,0.1,0.5,0.6,0.5h10.6c2.2,0,3.3,1.1,3.3,3.3V21c0,2.1-1.2,3.3-3.3,3.3H35.1z"/>
	</g>
	<g>
		<path class="st0" d="M59.3,23.9c-0.5,0-0.8-0.3-0.8-1c0-0.8,0.2-1.1,0.8-1.1h9.5c0.6,0,0.8-0.2,1.1-0.5l2.7-3.2
			c0.4-0.5,0.4-0.6,0.4-1.3v-2.8c0-0.4-0.2-0.6-0.6-0.6h-14c-0.7,0-0.8-0.4-0.8-1.1c0-0.7,0.2-1.1,0.9-1.1h14.8c1.3,0,1.9,0.7,1.9,2
			v3.8c0,1.1-0.1,1.5-0.7,2.2l-3,3.6c-0.7,0.8-1.1,1.1-2.3,1.1C69.3,23.9,59.3,23.9,59.3,23.9z M58.9,7.9c-0.6,0-0.8-0.3-0.8-1.1
			c0-0.8,0.2-1.1,0.8-1.1h14.9c0.6,0,0.8,0.3,0.8,1.1c0,0.7-0.1,1.1-0.8,1.1H58.9z"/>
	</g>
	<g>
		<path class="st0" d="M90.1,24c-0.8,0-1.1-0.2-1.1-0.8V10.1h-7.5c-0.6,0-0.8-0.3-0.8-1.1c0-0.8,0.2-1.1,0.8-1.1H89V5.5
			c0-0.6,0.3-0.8,1.1-0.8c0.7,0,1.1,0.1,1.1,0.8V8h7.6c0.6,0,0.8,0.3,0.8,1.1c0,0.6-0.1,1.1-0.8,1.1h-7.6v13.1
			C91.1,23.8,90.8,24,90.1,24z M98.1,22.9c-0.6,0-1-0.3-1.2-0.9l-2.2-8c0-0.1,0-0.2,0-0.2c0-0.6,1.1-0.7,1.4-0.7
			c0.4,0,0.6,0.2,0.7,0.6l1.9,6.9c0.1,0.1,0.1,0.2,0.3,0.2h0.5c0.5,0,0.7,0.3,0.7,1.1c0,0.5-0.1,0.8-0.2,1c-0.1,0.1-0.3,0.2-0.5,0.2
			C99.4,22.9,98.1,22.9,98.1,22.9z M80.8,22.9c-0.5,0-0.7-0.3-0.7-1.1c0-0.8,0.2-1.1,0.7-1.1h0.5c0.2,0,0.2,0,0.3-0.2l1.9-7
			c0.1-0.4,0.2-0.6,0.7-0.6c0.4,0,1.5,0.1,1.5,0.7c0,0.1,0,0.2-0.1,0.3l-2.2,8c-0.2,0.6-0.6,0.9-1.2,0.9L80.8,22.9L80.8,22.9z M99,6
			c-0.3,0-0.6-0.2-0.6-0.6V4.7c0-0.3,0.2-0.6,0.6-0.6h0.8c0.3,0,0.6,0.2,0.6,0.6v0.8c0,0.3-0.2,0.6-0.6,0.6L99,6L99,6z M96,6
			c-0.3,0-0.6-0.2-0.6-0.6V4.7c0-0.3,0.2-0.6,0.6-0.6h0.8c0.3,0,0.6,0.2,0.6,0.6v0.8c0,0.2-0.1,0.3-0.2,0.4S97,6,96.8,6L96,6L96,6z"
			/>
	</g>
	<g>
		<g>
			<g>
				<path class="st1" d="M110.2,24.4c-2.8,0-4-1.2-4-4v-1c0-0.5,0.3-0.7,1.1-0.7c0.7,0,1.1,0.1,1.1,0.7V20c0,1.7,0.6,2.3,2.3,2.3
					h6.5c1.6,0,2.3-0.7,2.3-2.3v-2.1c0-1-0.7-2.1-2.2-2.1h-5.1c-0.7,0-0.8-0.6-0.8-1.1c0-0.5,0.1-1.1,0.8-1.1h5.1
					c1.5,0,2.1-1.1,2.1-2.1l0-2.2c0-0.6-0.2-1.1-0.6-1.5c-0.4-0.4-0.9-0.6-1.6-0.6h-6.9c-1.6,0-2.2,1.2-2.2,2.1v0.8
					c0,0.6-0.3,0.7-1.1,0.7c-0.7,0-1.1-0.1-1.1-0.7V8.9c0-2.3,1.5-3.9,3.8-3.9h7.9c2.3,0,3.8,1.5,3.8,3.9v2.6c0,1.4-0.5,2.5-1.5,3.2
					c0.9,0.7,1.5,1.8,1.5,3.2v2.6c0,2.5-1.4,4-4,4L110.2,24.4L110.2,24.4z"/>
			</g>
			<g>
				<path class="st2" d="M110.2,23.9c-2.8,0-4-1.2-4-4v-1c0-0.5,0.3-0.7,1.1-0.7c0.7,0,1.1,0.1,1.1,0.7v0.6c0,1.7,0.6,2.3,2.3,2.3
					h6.5c1.6,0,2.3-0.7,2.3-2.3v-2.1c0-1-0.7-2.1-2.2-2.1h-5.1c-0.7,0-0.8-0.6-0.8-1.1c0-0.5,0.1-1.1,0.8-1.1h5.1
					c1.5,0,2.1-1.1,2.1-2.1l0-2.2c0-0.6-0.2-1.1-0.6-1.5c-0.4-0.4-0.9-0.6-1.6-0.6h-6.9c-1.6,0-2.2,1.2-2.2,2.1v0.8
					c0,0.6-0.3,0.7-1.1,0.7c-0.7,0-1.1-0.1-1.1-0.7V8.3c0-2.3,1.5-3.9,3.8-3.9h7.9c2.3,0,3.8,1.5,3.8,3.9v2.6c0,1.4-0.5,2.5-1.5,3.2
					c0.9,0.7,1.5,1.8,1.5,3.1v2.6c0,2.5-1.4,4-4,4L110.2,23.9L110.2,23.9z"/>
			</g>
		</g>
		<g>
			<g>
				<path class="st1" d="M127.6,24.4c-1.5,0-2-0.5-2-2V7c0-1.5,0.5-2,2-2h7c3.9,0,6.7,2.8,6.7,6.6v5.9c0,3.9-2.9,6.9-6.6,6.9
					L127.6,24.4L127.6,24.4z M128.4,7.2c-0.6,0-0.6,0.1-0.6,0.6v13.9c0,0.6,0,0.6,0.6,0.6h5.9c3,0,4.9-2.7,4.9-5.2v-5.1
					c0-2.7-2.2-4.9-5.1-4.9H128.4z"/>
			</g>
			<g>
				<path class="st2" d="M127.6,23.9c-1.5,0-2-0.5-2-2V6.5c0-1.5,0.5-2,2-2h7c3.9,0,6.7,2.8,6.7,6.6V17c0,3.9-2.9,6.9-6.6,6.9
					L127.6,23.9L127.6,23.9z M128.4,6.6c-0.6,0-0.6,0.1-0.6,0.6v13.9c0,0.6,0,0.6,0.6,0.6h5.9c3,0,4.9-2.7,4.9-5.2v-5.1
					c0-2.7-2.2-4.9-5.1-4.9H128.4z"/>
			</g>
		</g>
	</g>
	<g>
		<path class="st0" d="M164.4,24.3c-0.3,0-0.5-0.2-0.6-0.4l-0.9-1.5c-0.1-0.2-0.1-0.3-0.1-0.5c0-0.2,0.1-0.3,0.2-0.4h-5
			c0.1,0.1,0.1,0.2,0.1,0.4c0,0.1-0.1,0.3-0.1,0.5l-0.9,1.5c-0.1,0.2-0.3,0.4-0.6,0.4c-0.4,0-1.1-0.4-1.1-0.8c0-0.2,0.1-0.3,0.1-0.5
			l0.9-1.5h0c-1,0-1.5-0.5-1.5-1.5v-5.8c0-1,0.5-1.5,1.5-1.5h3.2v-1.4h-4.6c-0.5,0-0.8-0.3-0.8-0.9c0-0.6,0.2-0.9,0.8-0.9h1.6v-2
			h-1.1c-0.5,0-0.8-0.3-0.8-0.9c0-0.6,0.2-0.9,0.8-0.9h1.1V5.4c0-0.6,0.3-0.9,1-0.9c0.7,0,1,0.3,1,0.9v0.4h3.7V5.4
			c0-0.6,0.3-0.9,1-0.9c0.7,0,1,0.3,1,0.9v0.4h1c0.5,0,0.8,0.3,0.8,0.9s-0.2,0.9-0.8,0.9h-1v2h1.6c0.5,0,0.8,0.3,0.8,0.9
			s-0.2,0.9-0.8,0.9h-4.5v1.4h3.2c1,0,1.5,0.5,1.5,1.5V20c0,1-0.5,1.5-1.5,1.5h-0.1c0,0,0,0,0,0l0.9,1.5c0.1,0.2,0.1,0.3,0.1,0.5
			C165.5,23.9,164.8,24.3,164.4,24.3z M164.2,19.8v-1.9h-2.9v1.9H164.2z M159.5,19.8v-1.9h-2.9v1.9H159.5z M164.2,16.3v-1.9h-2.9
			v1.9L164.2,16.3L164.2,16.3z M159.5,16.3v-1.9h-2.9v1.9L159.5,16.3L159.5,16.3z M162.2,9.5V7.6h-3.7v1.9L162.2,9.5L162.2,9.5z
			 M150.7,24c-0.7,0-0.9-0.2-0.9-0.8v-8.8l-1.1,4.1c-0.1,0.2-0.2,0.6-0.7,0.6c-0.4,0-1.1-0.2-1.1-0.8c0-0.1,0-0.1,0-0.2l1.9-6.9
			c0.1-0.5,0.4-0.6,0.7-0.6c0.1,0,0.2,0,0.2,0V9.7h-1.8c-0.6,0-0.8-0.3-0.8-0.9s0.3-1,0.8-1h1.8V5.3c0-0.6,0.3-0.8,0.9-0.8
			c0.6,0,0.9,0.3,0.9,0.8v2.4h1.6c0.6,0,0.9,0.3,0.9,1c0,0.6-0.3,0.9-0.9,0.9h-1.6v2.8c0.1-0.1,0.2-0.1,0.3-0.1
			c0.3,0,0.4,0.2,0.6,0.4l1.7,2.6c0.1,0.2,0.1,0.3,0.1,0.4c0,0.1-0.1,0.3-0.2,0.5c-0.2,0.2-0.5,0.4-0.8,0.4c-0.3,0-0.4-0.2-0.6-0.4
			l-1.2-1.8v8.7C151.7,23.7,151.4,24,150.7,24z"/>
	</g>
	<g>
		<path class="st0" d="M187.1,24.1c-0.3,0-0.5-0.2-0.7-0.4l-1.6-2.2c-0.1-0.2-0.2-0.4-0.2-0.5c0-0.5,0.8-0.9,1.2-0.9
			c0.3,0,0.5,0.2,0.7,0.4l1.7,2.2c0.1,0.2,0.2,0.4,0.2,0.5C188.2,23.6,187.5,24.1,187.1,24.1z M176.9,24.1c-0.4,0-1.2-0.5-1.2-1
			c0-0.2,0.1-0.4,0.2-0.5l1.6-2.2c0.1-0.2,0.4-0.4,0.7-0.4c0.5,0,1.2,0.4,1.2,0.9c0,0.2-0.1,0.4-0.2,0.5l-1.6,2.2
			C177.4,23.9,177.2,24.1,176.9,24.1z M170.8,24.1c-0.4,0-1.2-0.4-1.2-0.9c0-0.1,0-0.2,0.1-0.4l3.3-7.7c0.1-0.3,0.3-0.6,0.8-0.6
			c0.4,0,1.2,0.4,1.2,0.9c0,0.1-0.1,0.3-0.1,0.4l-3.4,7.6C171.4,23.8,171.2,24.1,170.8,24.1z M175.9,19.8c-0.6,0-0.8-0.3-0.8-0.9
			c0-0.6,0.3-0.9,0.8-0.9h0.7V7.5c0-1,0.4-1.5,1.4-1.7l8.8-1.4c0.5,0,0.8,0.4,0.8,1.1c0,0.5-0.2,0.7-0.7,0.8l-8.3,1.3v2.4h8.7
			c0.6,0,0.8,0.3,0.8,0.9c0,0.6-0.3,0.9-0.8,0.9h-0.7v6h1.4c0.6,0,0.8,0.3,0.8,0.9c0,0.6-0.3,0.9-0.9,0.9L175.9,19.8L175.9,19.8z
			 M184.6,17.9v-6h-6v6H184.6z M173.8,13.1c-0.1,0-0.2,0-0.4-0.1l-3.3-1c-0.3-0.1-0.6-0.2-0.6-0.7c0-0.4,0.2-1.2,0.8-1.2
			c0.1,0,0.2,0,0.4,0.1l3.3,1c0.3,0.1,0.6,0.3,0.6,0.7c0,0.1,0,0.2-0.1,0.4l0,0.1C174.4,12.7,174.2,13.1,173.8,13.1z M173.9,8.2
			c-0.1,0-0.2,0-0.4-0.1l-3.3-1.3c-0.4-0.2-0.6-0.4-0.6-0.7c0-0.4,0.3-1.2,0.9-1.2c0.1,0,0.2,0,0.4,0.1l3.3,1.3
			c0.3,0.1,0.6,0.3,0.6,0.7c0,0.1,0,0.3-0.1,0.5C174.5,7.8,174.3,8.2,173.9,8.2z"/>
	</g>
</g>
</svg>
