<?xml version="1.0" encoding="utf-8"?>
<!-- Generator: Adobe Illustrator 28.0.0, SVG Export Plug-In . SVG Version: 6.00 Build 0)  -->
<svg version="1.1" id="レイヤー_1" xmlns="http://www.w3.org/2000/svg" xmlns:xlink="http://www.w3.org/1999/xlink" x="0px"
	 y="0px" viewBox="0 0 28.3 28.3" style="enable-background:new 0 0 28.3 28.3;" xml:space="preserve">
<style type="text/css">
	.st0{fill:#FFFFFF;}
	.st1{fill:#00479B;}
</style>
<rect x="0" y="0" class="st0" width="28.4" height="28.3"/>
<path class="st1" d="M0,0v28.3h28.4V0H0z M24.5,19.7c-0.1,0.4-0.3,0.8-0.7,0.8c-0.2,0-0.3,0-0.5-0.1l-3.7-1.7
	c-0.9-0.4-1.3-0.5-2.2-0.5v3.7c0,1.5-0.5,2.5-3.3,2.5h-7c-1.6,0-2.6-1-2.6-2.7v-3c0-1.5,1.1-2.6,2.6-2.6h8.1v-2.8H5.9
	c-0.6,0-0.8-0.3-0.8-1c0-0.6,0.1-1,0.8-1h9.3V8.4H5.9c-0.6,0-0.8-0.3-0.8-1c0-0.6,0.1-1,0.8-1h9.3V4.8c0-0.6,0.3-0.8,1.1-0.8
	c0.8,0,1.1,0.1,1.1,0.8v1.6h5c0.5,0,0.8,0.3,0.8,1c0,0.6-0.1,1-0.8,1h-5v2.9h5c0.5,0,0.8,0.3,0.8,1c0,0.6-0.1,1-0.8,1h-5v2.8h0.3
	c1.1,0,1.4,0.1,2.6,0.6l3.8,1.8c0.2,0.1,0.4,0.2,0.4,0.6C24.6,19.2,24.6,19.5,24.5,19.7z M8.1,18h7.2v3.4c0,0.8-0.2,1.1-1.7,1.1H8.1
	c-0.9,0-1.3-0.4-1.3-1.2v-2C6.7,18.5,7.2,18,8.1,18z"/>
</svg>
