<?xml version="1.0" encoding="utf-8"?>
<!-- Generator: Adobe Illustrator 28.0.0, SVG Export Plug-In . SVG Version: 6.00 Build 0)  -->
<svg version="1.1" id="レイヤー_1" xmlns="http://www.w3.org/2000/svg" xmlns:xlink="http://www.w3.org/1999/xlink" x="0px"
	 y="0px" viewBox="0 0 198.43 28.35" style="enable-background:new 0 0 198.43 28.35;" xml:space="preserve">
<style type="text/css">
	.st0{fill:#00479B;}
	.st1{fill:#E74573;}
</style>
<g>
	<g>
		<path class="st0" d="M12.21,24.37c-1.6,0-2.63-1.04-2.63-2.66v-2.99c0-1.53,1.08-2.59,2.63-2.59h8.07v-2.79h-9.34
			c-0.57,0-0.8-0.29-0.8-1c0-0.6,0.14-1,0.8-1h9.34V8.42h-9.34c-0.57,0-0.8-0.29-0.8-1c0-0.6,0.14-1,0.8-1h9.34V4.78
			c0-0.6,0.27-0.8,1.07-0.8c0.79,0,1.07,0.12,1.07,0.8v1.63h5.01c0.55,0,0.77,0.29,0.77,1c0,0.63-0.13,1-0.77,1h-5.01v2.92h5.01
			c0.55,0,0.77,0.29,0.77,1c0,0.63-0.13,1-0.77,1h-5.01v2.78h0.34c1.11,0,1.39,0.11,2.58,0.64l3.85,1.75
			c0.22,0.08,0.42,0.21,0.42,0.58c0,0.17-0.05,0.39-0.15,0.67c-0.13,0.39-0.31,0.75-0.7,0.75c-0.17,0-0.33-0.04-0.49-0.12
			l-3.67-1.72c-0.91-0.43-1.28-0.5-2.18-0.5v3.69c0,1.51-0.55,2.52-3.25,2.52H12.21z M13.07,18.01c-0.83,0-1.33,0.46-1.33,1.22v1.97
			c0,0.79,0.48,1.24,1.33,1.24h5.56c1.49,0,1.65-0.33,1.65-1.08v-3.35H13.07z"/>
	</g>
	<g>
		<path class="st0" d="M35.12,24.31c-0.58,0-0.82-0.32-0.82-1.07c0-0.73,0.25-1.05,0.82-1.05h13.47c1.25,0,1.74-0.46,1.74-1.65
			v-3.08c0-1.17-0.51-1.67-1.7-1.67H37.37c-1.08,0-1.68-0.54-1.68-1.52c0-0.1,0-0.21,0.02-0.34l0.52-4.71h-2.54
			c-0.58,0-0.82-0.32-0.82-1.07c0-0.77,0.23-1.07,0.82-1.07h2.75l0.24-2.03c0.05-0.56,0.38-0.78,1.16-0.78
			c0.55,0,1.05,0.08,1.05,0.66l-0.23,2.15H51.7c0.58,0,0.82,0.32,0.82,1.07c0,0.76-0.24,1.07-0.82,1.07H38.43l-0.42,3.95
			c0,0.21,0.06,0.5,0.61,0.5h10.59c2.18,0,3.29,1.11,3.29,3.29v4.08c0,2.11-1.19,3.27-3.34,3.27H35.12z"/>
	</g>
	<g>
		<path class="st0" d="M59.31,23.86c-0.55,0-0.8-0.32-0.8-1.05c0-0.77,0.22-1.07,0.8-1.07h9.55c0.56,0,0.81-0.18,1.07-0.49l2.7-3.22
			c0.39-0.45,0.45-0.63,0.45-1.34v-2.83c0-0.43-0.19-0.63-0.61-0.63H58.5c-0.7,0-0.84-0.43-0.84-1.07c0-0.66,0.15-1.07,0.87-1.07
			h14.76c1.29,0,1.95,0.67,1.95,2v3.85c0,1.12-0.08,1.5-0.69,2.22l-2.97,3.58c-0.7,0.84-1.13,1.12-2.29,1.12H59.31z M58.91,7.92
			c-0.56,0-0.8-0.32-0.8-1.07c0-0.77,0.22-1.07,0.8-1.07h14.94c0.57,0,0.8,0.31,0.8,1.07c0,0.66-0.13,1.07-0.8,1.07H58.91z"/>
	</g>
	<g>
		<path class="st0" d="M90.05,24c-0.78,0-1.07-0.22-1.07-0.8V10.12h-7.5c-0.56,0-0.8-0.32-0.8-1.07c0-0.78,0.22-1.07,0.8-1.07h7.5
			V5.52c0-0.57,0.31-0.8,1.07-0.8c0.66,0,1.09,0.14,1.09,0.8v2.44h7.55c0.58,0,0.8,0.3,0.8,1.07c0,0.65-0.14,1.08-0.8,1.08h-7.55
			v13.08C91.14,23.76,90.82,24,90.05,24z M98.05,22.93c-0.57,0-1-0.33-1.16-0.87l-2.18-8.03c-0.02-0.09-0.02-0.17-0.02-0.24
			c0-0.6,1.06-0.73,1.43-0.73c0.43,0,0.57,0.19,0.68,0.55l1.88,6.92c0.05,0.15,0.08,0.19,0.29,0.19h0.5c0.48,0,0.68,0.32,0.68,1.09
			c0.01,0.5-0.05,0.79-0.22,0.96c-0.14,0.14-0.33,0.16-0.48,0.16H98.05z M80.76,22.93c-0.54,0-0.73-0.29-0.73-1.11
			c0-0.78,0.2-1.09,0.68-1.09h0.5c0.2,0,0.25-0.04,0.29-0.19l1.88-6.97c0.1-0.37,0.24-0.55,0.68-0.55c0.38,0,1.46,0.13,1.46,0.73
			c0,0.1-0.03,0.19-0.06,0.28l-2.17,8.04c-0.16,0.56-0.57,0.87-1.16,0.87H80.76z M98.96,6.04c-0.34,0-0.59-0.25-0.59-0.59V4.66
			c0-0.34,0.25-0.59,0.59-0.59h0.84c0.35,0,0.59,0.24,0.59,0.59v0.77c0,0.35-0.24,0.6-0.59,0.6H98.96z M96.01,6.04
			c-0.35,0-0.59-0.24-0.59-0.59V4.66c0-0.34,0.25-0.59,0.59-0.59h0.84c0.34,0,0.59,0.25,0.59,0.59v0.77
			c0.01,0.16-0.05,0.31-0.16,0.42c-0.11,0.11-0.27,0.18-0.43,0.18H96.01z"/>
	</g>
	<g>
		<path class="st1" d="M110.2,24.28c-2.8,0-3.99-1.19-3.99-3.99v-0.95c0-0.54,0.29-0.73,1.09-0.73c0.72,0,1.09,0.11,1.09,0.68v0.59
			c0,1.69,0.61,2.29,2.33,2.29h6.53c1.55,0,2.31-0.74,2.31-2.26v-2.15c0-1.02-0.67-2.13-2.15-2.13h-5.08c-0.71,0-0.8-0.57-0.8-1.07
			c0-0.53,0.09-1.07,0.8-1.07h5.1c1.54,0,2.11-1.15,2.13-2.13l0.02-2.2c0.01-0.59-0.2-1.15-0.58-1.54
			c-0.38-0.39-0.91-0.59-1.55-0.59h-6.92c-1.59,0-2.15,1.16-2.15,2.15v0.75c0,0.58-0.35,0.68-1.09,0.68c-0.71,0-1.09-0.12-1.09-0.73
			V8.74c0-2.35,1.51-3.86,3.84-3.86h7.89c2.33,0,3.84,1.52,3.84,3.86v2.63c-0.01,1.41-0.54,2.53-1.5,3.18
			c0.95,0.67,1.47,1.78,1.47,3.15v2.58c0,2.54-1.45,3.99-3.97,3.99H110.2z"/>
	</g>
	<g>
		<path class="st1" d="M127.64,24.29c-1.48,0-2-0.51-2-1.95V6.88c0-1.48,0.52-2,2-2h7.01c3.91,0,6.74,2.79,6.74,6.64v5.88
			c-0.01,3.92-2.85,6.88-6.61,6.88H127.64z M128.43,7.03c-0.58,0-0.63,0.05-0.63,0.63v13.88c0,0.56,0.04,0.63,0.63,0.63h5.94
			c3.01,0,4.87-2.69,4.87-5.19v-5.06c0-2.74-2.22-4.89-5.05-4.89H128.43z"/>
	</g>
	<g>
		<path class="st0" d="M164.38,24.26c-0.33,0-0.5-0.22-0.63-0.42l-0.91-1.49c-0.1-0.2-0.15-0.34-0.15-0.45
			c0-0.16,0.07-0.29,0.16-0.39h-4.97c0.09,0.1,0.15,0.23,0.15,0.39c0,0.14-0.05,0.28-0.15,0.45l-0.87,1.49
			c-0.1,0.18-0.28,0.43-0.63,0.43c-0.37,0-1.1-0.36-1.1-0.82c0-0.17,0.06-0.3,0.15-0.45l0.89-1.49h-0.03c-0.97,0-1.5-0.53-1.5-1.5
			v-5.82c0-0.96,0.53-1.48,1.5-1.48h3.22v-1.42h-4.56c-0.53,0-0.76-0.26-0.76-0.86c0-0.61,0.23-0.88,0.76-0.88h1.6V7.58h-1.05
			c-0.53,0-0.76-0.26-0.76-0.86c0-0.61,0.23-0.88,0.76-0.88h1.05v-0.4c0-0.62,0.32-0.91,0.99-0.91c0.69,0,1.01,0.29,1.01,0.91v0.39
			h3.67V5.44c0-0.63,0.31-0.91,1.01-0.91c0.69,0,1.01,0.29,1.01,0.91v0.39h1.01c0.53,0,0.78,0.28,0.78,0.88
			c0,0.6-0.24,0.86-0.78,0.86h-1.01v1.95h1.56c0.53,0,0.78,0.28,0.78,0.88s-0.25,0.88-0.77,0.88h-4.54v1.42h3.22
			c0.97,0,1.5,0.53,1.5,1.48v5.82c0,0.97-0.53,1.5-1.5,1.5h-0.07c0,0.01,0.01,0.02,0.02,0.04l0.88,1.45
			c0.1,0.19,0.15,0.34,0.15,0.45C165.46,23.92,164.76,24.26,164.38,24.26z M164.22,19.79v-1.91h-2.95v1.91H164.22z M159.5,19.79
			v-1.91h-2.93v1.91H159.5z M164.22,16.32V14.4h-2.95v1.93H164.22z M159.5,16.32V14.4h-2.93v1.93H159.5z M162.22,9.52V7.58h-3.67
			v1.95H162.22z M150.71,23.97c-0.67,0-0.95-0.25-0.95-0.82v-8.8l-1.14,4.12c-0.06,0.24-0.2,0.57-0.67,0.57
			c-0.44,0-1.08-0.24-1.08-0.76c0-0.07,0.01-0.15,0.03-0.24l1.92-6.9c0.13-0.49,0.45-0.59,0.69-0.59c0.08,0,0.16,0.01,0.24,0.04
			V9.71h-1.82c-0.58,0-0.84-0.29-0.84-0.95c0-0.66,0.27-0.97,0.84-0.97h1.82V5.35c0-0.58,0.29-0.84,0.95-0.84
			c0.65,0,0.95,0.27,0.95,0.84v2.43h1.65c0.59,0,0.86,0.31,0.86,0.97c0,0.65-0.27,0.95-0.86,0.95h-1.65v2.75
			c0.12-0.06,0.23-0.08,0.33-0.08c0.28,0,0.45,0.19,0.57,0.36l1.7,2.64c0.1,0.17,0.15,0.31,0.15,0.44c0,0.15-0.07,0.3-0.21,0.45
			c-0.21,0.21-0.54,0.38-0.77,0.38c-0.28,0-0.45-0.19-0.57-0.36l-1.19-1.83v8.7C151.66,23.71,151.37,23.97,150.71,23.97z"/>
	</g>
	<g>
		<path class="st0" d="M187.07,24.1c-0.32,0-0.53-0.21-0.68-0.39l-1.64-2.21c-0.15-0.2-0.22-0.37-0.22-0.5
			c0-0.47,0.75-0.93,1.18-0.93c0.3,0,0.51,0.21,0.66,0.39l1.66,2.17c0.14,0.17,0.22,0.35,0.22,0.54
			C188.25,23.62,187.49,24.1,187.07,24.1z M176.91,24.1c-0.43,0-1.18-0.47-1.18-0.95c0-0.19,0.08-0.37,0.22-0.54l1.63-2.16
			c0.15-0.19,0.36-0.4,0.66-0.4c0.46,0,1.18,0.43,1.18,0.93c0,0.19-0.11,0.37-0.21,0.53l-1.62,2.19
			C177.44,23.89,177.23,24.1,176.91,24.1z M170.8,24.07c-0.42,0-1.22-0.35-1.22-0.9c0-0.12,0.04-0.25,0.12-0.44l3.34-7.67
			c0.13-0.29,0.33-0.58,0.75-0.58c0.44,0,1.25,0.35,1.25,0.93c-0.01,0.14-0.06,0.28-0.13,0.43l-3.36,7.64
			C171.41,23.78,171.22,24.07,170.8,24.07z M175.89,19.8c-0.58,0-0.82-0.28-0.82-0.93c0-0.64,0.26-0.93,0.82-0.93h0.71V7.47
			c0-1.01,0.44-1.52,1.42-1.67c0,0,8.8-1.36,8.8-1.36c0.5,0,0.8,0.41,0.8,1.08c0,0.47-0.23,0.73-0.71,0.8l-8.3,1.32v2.44h8.72
			c0.57,0,0.84,0.3,0.84,0.93c0,0.64-0.26,0.93-0.84,0.93h-0.73v6.01h1.41c0.57,0,0.84,0.3,0.84,0.93
			c-0.01,0.63-0.27,0.91-0.85,0.91H175.89z M184.63,17.94v-6.01h-6.03v6.01H184.63z M173.78,13.13c-0.12,0-0.24-0.02-0.37-0.07
			l-3.33-1.04c-0.26-0.08-0.61-0.25-0.61-0.74c0-0.41,0.25-1.2,0.84-1.2c0.12,0,0.24,0.02,0.37,0.07l3.31,1.02
			c0.27,0.09,0.63,0.26,0.63,0.74c0,0.11-0.03,0.22-0.06,0.35l-0.02,0.1C174.42,12.72,174.23,13.13,173.78,13.13z M173.89,8.17
			c-0.12,0-0.23-0.02-0.38-0.07l-3.26-1.32c-0.38-0.16-0.56-0.39-0.56-0.7c0-0.41,0.3-1.18,0.86-1.18c0.12,0,0.25,0.04,0.37,0.08
			l3.29,1.33c0.26,0.11,0.56,0.29,0.56,0.68c0,0.14-0.04,0.3-0.11,0.51C174.53,7.82,174.32,8.17,173.89,8.17z"/>
	</g>
</g>
</svg>
